
<svg
width="300"
height="315"
viewBox="0 0 300 315"
fill="none"
xmlns="http://www.w3.org/2000/svg"
role="img"
aria-labelledby="descId"
>
<title id="titleId"></title>
<desc id="descId"></desc>
<style>
.header {
font: 600 18px 'Segoe UI', Ubuntu, Sans-Serif;
fill: #2f80ed;
animation: fadeInAnimation 0.8s ease-in-out forwards;
}
@supports(-moz-appearance: auto) {
/* Selector detects Firefox */
.header { font-size: 15.5px; }
}

@keyframes slideInAnimation {
from {
width: 0;
}
to {
width: calc(100%-100px);
}
}
@keyframes growWidthAnimation {
from {
width: 0;
}
to {
width: 100%;
}
}
.stat {
font: 600 14px 'Segoe UI', Ubuntu, "Helvetica Neue", Sans-Serif; fill: #434d58;
}
@supports(-moz-appearance: auto) {
/* Selector detects Firefox */
.stat { font-size:12px; }
}
.bold { font-weight: 700 }
.lang-name {
font: 400 11px "Segoe UI", Ubuntu, Sans-Serif;
fill: #434d58;
}
.stagger {
opacity: 0;
animation: fadeInAnimation 0.3s ease-in-out forwards;
}
#rect-mask rect{
animation: slideInAnimation 1s ease-in-out forwards;
}
.lang-progress{
animation: growWidthAnimation 0.6s ease-in-out forwards;
}



/* Animations */
@keyframes scaleInAnimation {
from {
transform: translate(-5px, 5px) scale(0);
}
to {
transform: translate(-5px, 5px) scale(1);
}
}
@keyframes fadeInAnimation {
from {
opacity: 0;
}
to {
opacity: 1;
}
}


</style>



<rect
data-testid="card-bg"
x="0.5"
y="0.5"
rx="4.5"
height="99%"
stroke="#e4e2e2"
width="299"
fill="#fffefe"
stroke-opacity="1"
/>


<g
data-testid="card-title"
transform="translate(25, 35)"
>
<g transform="translate(0, 0)">
<text
x="0"
y="0"
class="header"
data-testid="header"
>Most Owned Languages</text>
</g>
</g>


<g
data-testid="main-card-body"
transform="translate(0, 55)"
>

<svg data-testid="lang-items" x="25">


<mask id="rect-mask">
<rect x="0" y="0" width="250" height="8" fill="white" rx="5"/>
</mask>

<rect
mask="url(#rect-mask)"
data-testid="lang-progress"
x="0"
y="0"
width="151.59"
height="8"
fill="#3572A5"
/>

<rect
mask="url(#rect-mask)"
data-testid="lang-progress"
x="151.59"
y="0"
width="66.99"
height="8"
fill="#dea584"
/>

<rect
mask="url(#rect-mask)"
data-testid="lang-progress"
x="218.57999999999998"
y="0"
width="14.65"
height="8"
fill="#6e4a7e"
/>

<rect
mask="url(#rect-mask)"
data-testid="lang-progress"
x="223.23"
y="0"
width="14.48"
height="8"
fill="#701516"
/>

<rect
mask="url(#rect-mask)"
data-testid="lang-progress"
x="227.70999999999998"
y="0"
width="13.8"
height="8"
fill="#f1e05a"
/>

<rect
mask="url(#rect-mask)"
data-testid="lang-progress"
x="231.51"
y="0"
width="12.72"
height="8"
fill="#3c5caa"
/>

<rect
mask="url(#rect-mask)"
data-testid="lang-progress"
x="234.23"
y="0"
width="12.56"
height="8"
fill="#A97BFF"
/>

<rect
mask="url(#rect-mask)"
data-testid="lang-progress"
x="236.79"
y="0"
width="12.48"
height="8"
fill="#000080"
/>

<rect
mask="url(#rect-mask)"
data-testid="lang-progress"
x="239.26999999999998"
y="0"
width="11.620000000000001"
height="8"
fill="#f34b7d"
/>

<rect
mask="url(#rect-mask)"
data-testid="lang-progress"
x="240.89"
y="0"
width="11.54"
height="8"
fill="#ff3e00"
/>

<rect
mask="url(#rect-mask)"
data-testid="lang-progress"
x="242.42999999999998"
y="0"
width="11.49"
height="8"
fill="#00B4AB"
/>

<rect
mask="url(#rect-mask)"
data-testid="lang-progress"
x="243.92"
y="0"
width="11.4"
height="8"
fill="#6E4C13"
/>

<rect
mask="url(#rect-mask)"
data-testid="lang-progress"
x="245.32"
y="0"
width="11.24"
height="8"
fill="#555555"
/>

<rect
mask="url(#rect-mask)"
data-testid="lang-progress"
x="246.56"
y="0"
width="10.86"
height="8"
fill="#F05138"
/>

<rect
mask="url(#rect-mask)"
data-testid="lang-progress"
x="247.42000000000002"
y="0"
width="10.8"
height="8"
fill="#ff5a03"
/>

<rect
mask="url(#rect-mask)"
data-testid="lang-progress"
x="248.22000000000003"
y="0"
width="10.79"
height="8"
fill="#b07219"
/>

<rect
mask="url(#rect-mask)"
data-testid="lang-progress"
x="249.01000000000002"
y="0"
width="10.63"
height="8"
fill="#336790"
/>

<rect
mask="url(#rect-mask)"
data-testid="lang-progress"
x="249.64000000000001"
y="0"
width="10.35"
height="8"
fill="#384d54"
/>


<g transform="translate(0, 25)">
<g transform="translate(0, 0)"><g transform="translate(0, 0)">
<g class="stagger" style="animation-delay: 450ms">
<circle cx="5" cy="6" r="5" fill="#3572A5" />
<text data-testid="lang-name" x="15" y="10" class='lang-name'>
Python 3.3 MB
</text>
</g>
</g><g transform="translate(0, 25)">
<g class="stagger" style="animation-delay: 600ms">
<circle cx="5" cy="6" r="5" fill="#dea584" />
<text data-testid="lang-name" x="15" y="10" class='lang-name'>
Rust 1.5 MB
</text>
</g>
</g><g transform="translate(0, 50)">
<g class="stagger" style="animation-delay: 750ms">
<circle cx="5" cy="6" r="5" fill="#6e4a7e" />
<text data-testid="lang-name" x="15" y="10" class='lang-name'>
Elixir 103.3 KB
</text>
</g>
</g><g transform="translate(0, 75)">
<g class="stagger" style="animation-delay: 900ms">
<circle cx="5" cy="6" r="5" fill="#701516" />
<text data-testid="lang-name" x="15" y="10" class='lang-name'>
Ruby 99.5 KB
</text>
</g>
</g><g transform="translate(0, 100)">
<g class="stagger" style="animation-delay: 1050ms">
<circle cx="5" cy="6" r="5" fill="#f1e05a" />
<text data-testid="lang-name" x="15" y="10" class='lang-name'>
JavaScript 84.2 KB
</text>
</g>
</g><g transform="translate(0, 125)">
<g class="stagger" style="animation-delay: 1200ms">
<circle cx="5" cy="6" r="5" fill="#3c5caa" />
<text data-testid="lang-name" x="15" y="10" class='lang-name'>
Racket 60.4 KB
</text>
</g>
</g><g transform="translate(0, 150)">
<g class="stagger" style="animation-delay: 1350ms">
<circle cx="5" cy="6" r="5" fill="#A97BFF" />
<text data-testid="lang-name" x="15" y="10" class='lang-name'>
Kotlin 56.9 KB
</text>
</g>
</g><g transform="translate(0, 175)">
<g class="stagger" style="animation-delay: 1500ms">
<circle cx="5" cy="6" r="5" fill="#000080" />
<text data-testid="lang-name" x="15" y="10" class='lang-name'>
Lua 55.1 KB
</text>
</g>
</g><g transform="translate(0, 200)">
<g class="stagger" style="animation-delay: 1650ms">
<circle cx="5" cy="6" r="5" fill="#f34b7d" />
<text data-testid="lang-name" x="15" y="10" class='lang-name'>
C++ 35.9 KB
</text>
</g>
</g></g><g transform="translate(150, 0)"><g transform="translate(0, 0)">
<g class="stagger" style="animation-delay: 450ms">
<circle cx="5" cy="6" r="5" fill="#ff3e00" />
<text data-testid="lang-name" x="15" y="10" class='lang-name'>
Svelte 34.2 KB
</text>
</g>
</g><g transform="translate(0, 25)">
<g class="stagger" style="animation-delay: 600ms">
<circle cx="5" cy="6" r="5" fill="#00B4AB" />
<text data-testid="lang-name" x="15" y="10" class='lang-name'>
Dart 33.2 KB
</text>
</g>
</g><g transform="translate(0, 50)">
<g class="stagger" style="animation-delay: 750ms">
<circle cx="5" cy="6" r="5" fill="#6E4C13" />
<text data-testid="lang-name" x="15" y="10" class='lang-name'>
Assembly 31.1 KB
</text>
</g>
</g><g transform="translate(0, 75)">
<g class="stagger" style="animation-delay: 900ms">
<circle cx="5" cy="6" r="5" fill="#555555" />
<text data-testid="lang-name" x="15" y="10" class='lang-name'>
C 27.5 KB
</text>
</g>
</g><g transform="translate(0, 100)">
<g class="stagger" style="animation-delay: 1050ms">
<circle cx="5" cy="6" r="5" fill="#F05138" />
<text data-testid="lang-name" x="15" y="10" class='lang-name'>
Swift 19.1 KB
</text>
</g>
</g><g transform="translate(0, 125)">
<g class="stagger" style="animation-delay: 1200ms">
<circle cx="5" cy="6" r="5" fill="#ff5a03" />
<text data-testid="lang-name" x="15" y="10" class='lang-name'>
Astro 17.8 KB
</text>
</g>
</g><g transform="translate(0, 150)">
<g class="stagger" style="animation-delay: 1350ms">
<circle cx="5" cy="6" r="5" fill="#b07219" />
<text data-testid="lang-name" x="15" y="10" class='lang-name'>
Java 17.5 KB
</text>
</g>
</g><g transform="translate(0, 175)">
<g class="stagger" style="animation-delay: 1500ms">
<circle cx="5" cy="6" r="5" fill="#336790" />
<text data-testid="lang-name" x="15" y="10" class='lang-name'>
PLpgSQL 14.0 KB
</text>
</g>
</g><g transform="translate(0, 200)">
<g class="stagger" style="animation-delay: 1650ms">
<circle cx="5" cy="6" r="5" fill="#384d54" />
<text data-testid="lang-name" x="15" y="10" class='lang-name'>
Dockerfile 7.7 KB
</text>
</g>
</g></g>
</g>

</svg>

</g>
</svg>
